<?xml version="1.0" encoding="UTF-8"?>
<svg width="1200pt" height="1200pt" version="1.1" viewBox="0 0 1200 1200" xmlns="http://www.w3.org/2000/svg">
 <path d="m1130.4 448.8-92.398-69.602c-2.3984-2.3984-4.8008-3.6016-7.1992-4.8008l-416.4-309.6c-8.3984-6-20.398-6-28.801 0l-416.4 309.6c-2.3984 1.1992-4.8008 2.3984-7.1992 4.8008l-92.398 69.602c-10.801 8.3984-13.199 22.801-4.8008 33.602 8.3984 10.801 22.801 13.199 33.602 4.8008l57.598-43.203v576c0 66 54 120 120 120h648c66 0 120-54 120-120v-576l57.602 43.199c4.8008 3.6016 9.6016 4.8008 14.398 4.8008 7.1992 0 14.398-3.6016 19.199-9.6016 8.4023-10.797 6-25.199-4.8008-33.598zm-134.4 571.2c0 39.602-32.398 72-72 72h-648c-39.602 0-72-32.398-72-72v-612l396-294 396 294zm-406.8-444-45.602-150c-7.1992-24-26.398-43.199-51.602-49.199-25.199-6-50.398 1.1992-68.398 19.199l-123.6 124.8c-18 18-25.199 43.199-19.199 68.398s24 44.398 49.199 51.602l150 44.398c-1.1992 7.1992-1.1992 14.398 0 21.602l-150 44.398c-24 7.1992-43.199 26.398-49.199 51.602-6 25.199 1.1992 50.398 19.199 68.398l124.8 124.8c14.398 14.398 32.398 21.602 50.398 21.602 6 0 12-1.1992 18-2.3984 25.199-6 44.398-24 51.602-49.199l44.398-150h10.801 10.801l44.398 150c7.1992 24 26.398 43.199 51.602 49.199 6 1.1992 12 2.3984 18 2.3984 19.199 0 37.199-7.1992 50.398-21.602l124.8-124.8c18-18 25.199-43.199 19.199-68.398s-24-44.398-49.199-51.602l-150-44.398c1.1992-7.1992 1.1992-14.398 0-21.602l150-44.398c24-7.1992 43.199-26.398 49.199-51.602 6-25.199-1.1992-50.398-19.199-68.398l-124.8-124.8c-18-18-43.199-25.199-68.398-19.199s-44.398 25.199-51.602 49.199l-44.398 150h-21.602zm-244.8 18c-12-3.6016-15.602-13.199-16.801-16.801-1.1992-3.6016-2.3984-14.398 6-22.801l123.6-123.6c6-6 12-7.1992 16.801-7.1992 2.3984 0 4.8008 0 6 1.1992 3.6016 1.1992 13.199 4.8008 16.801 16.801l45.602 150c-9.6016 6-19.199 12-27.602 20.398-8.3984 8.3984-15.602 18-20.398 27.602zm153.6 357.6c-3.6016 12-13.199 15.602-16.801 16.801-3.6016 1.1992-14.398 2.3984-22.801-6l-123.6-124.8c-6-6-7.1992-12-7.1992-16.801 0-2.3984 0-4.8008 1.1992-6 1.1992-3.6016 4.8008-13.199 16.801-16.801l150-45.602c6 9.6016 12 19.199 20.398 27.602 8.3984 8.3984 18 15.602 27.602 20.398zm357.6-153.6c12 3.6016 15.602 13.199 16.801 16.801 1.1992 3.6016 2.3984 14.398-6 22.801l-124.8 123.6c-8.3984 8.3984-19.199 7.1992-22.801 6-3.6016-1.1992-13.199-4.8008-16.801-16.801l-45.602-150c9.6016-6 19.199-12 27.602-20.398 8.3984-8.3984 15.602-18 20.398-27.602zm-153.6-357.6c3.6016-12 13.199-15.602 16.801-16.801 1.1992 0 3.6016-1.1992 6-1.1992 4.8008 0 10.801 1.1992 16.801 7.1992l123.6 123.6c6 6 7.1992 12 7.1992 16.801 0 2.3984 0 4.8008-1.1992 6-1.1992 3.6016-4.8008 13.199-16.801 16.801l-150 45.602c-6-9.6016-12-19.199-20.398-27.602-8.3984-8.3984-18-15.602-27.602-20.398zm-51.602 205.2c27.602 27.602 27.602 73.199 0 102-27.602 27.602-73.199 27.602-102 0-27.602-27.602-27.602-73.199 0-102 14.398-14.398 32.398-21.602 50.398-21.602 18.004 0 38.402 7.1992 51.602 21.602z"/>
</svg>
