<?xml version="1.0" encoding="UTF-8"?>
<svg width="1200pt" height="1200pt" version="1.1" viewBox="0 0 1200 1200" xmlns="http://www.w3.org/2000/svg">
 <path d="m563.53 72c-218.42 0-397.18 179.98-427.09 411.38l-19.105-38.25c-2.0859-4.3164-5.4102-7.9062-9.5508-10.312-4.1367-2.4062-8.9023-3.5156-13.676-3.1875-8 0.62109-15.156 5.207-19.07 12.215-3.918 7.0078-4.0703 15.512-0.41406 22.66l59.941 120h0.003906c3.6484 7.4258 10.859 12.445 19.086 13.285 8.2266 0.83984 16.305-2.625 21.375-9.1602l83.918-108c3.9258-5.0742 5.6797-11.5 4.875-17.867-0.80859-6.3672-4.1094-12.152-9.1758-16.082-5.0703-3.9297-11.492-5.6797-17.852-4.8711-6.3594 0.8125-12.137 4.1172-16.062 9.1953l-38.215 49.125c22.074-216.25 185.25-382.12 381.01-382.12h0.003906c6.418 0.089844 12.602-2.3984 17.172-6.9102 4.5703-4.5117 7.1445-10.668 7.1445-17.09 0-6.4258-2.5742-12.582-7.1445-17.094-4.5703-4.5117-10.754-7-17.172-6.9062zm-26.227 192c-5.9609 0.5625-11.496 3.3359-15.52 7.7773-4.0195 4.4414-6.2344 10.227-6.207 16.223v52.875c-13.762 3.3281-27.836 8.4219-42.336 14.625l-36.715-36.75c-4.4883-4.4453-10.547-6.9336-16.859-6.9336s-12.371 2.4883-16.859 6.9336l-83.918 84c-4.2656 4.1758-6.8203 9.7969-7.168 15.762-0.34766 5.9648 1.543 11.844 5.2969 16.488l38.215 48c-5.3047 10.605-9.6133 21.793-13.113 33h-54.324c-6.3594 0-12.457 2.5273-16.953 7.0273-4.4961 4.5039-7.0234 10.605-7.0234 16.973v120c0 6.3633 2.5273 12.469 7.0234 16.969s10.594 7.0312 16.953 7.0312h53.199c3.3086 13.695 8.4727 27.562 14.609 42l-36.715 36.75c-4.5508 4.5078-7.1133 10.652-7.1133 17.062s2.5625 12.551 7.1133 17.062l83.918 84c4.4883 4.4414 10.547 6.9297 16.859 6.9297s12.371-2.4883 16.859-6.9297l36.715-36.75c14.5 6.2031 28.574 11.297 42.336 14.625v53.25c0 6.3633 2.5234 12.469 7.0195 16.969 4.5 4.5 10.598 7.0312 16.957 7.0312h119.88c6.3594 0 12.457-2.5312 16.953-7.0312 4.4961-4.5 7.0234-10.605 7.0234-16.969v-53.25c13.758-3.3281 27.836-8.4219 42.336-14.625l36.715 36.75c4.4883 4.4414 10.543 6.9297 16.855 6.9297s12.371-2.4883 16.859-6.9297l83.918-84h0.003906c4.5508-4.5117 7.1133-10.652 7.1133-17.062s-2.5625-12.555-7.1133-17.062l-36.715-36.75c6.1367-14.438 11.305-28.305 14.609-42h53.199c6.3594 0 12.457-2.5312 16.953-7.0312 4.4961-4.5 7.0234-10.605 7.0234-16.969v-120c0-6.3672-2.5273-12.469-7.0234-16.973-4.4961-4.5-10.594-7.0273-16.953-7.0273h-54.324c-3.5-11.207-7.8086-22.395-13.113-33l38.215-48c3.7539-4.6445 5.6406-10.523 5.2969-16.488-0.34766-5.9648-2.9023-11.586-7.168-15.762l-83.918-84h-0.003907c-4.4883-4.4453-10.547-6.9336-16.859-6.9336s-12.367 2.4883-16.855 6.9336l-36.715 36.75c-14.5-6.2031-28.574-11.297-42.336-14.625v-52.875c0-6.3672-2.5273-12.469-7.0234-16.973-4.4961-4.5-10.594-7.0273-16.953-7.0273h-119.88c-0.75-0.035156-1.5-0.035156-2.25 0zm26.227 48h71.93v48c0.019531 5.3711 1.8359 10.582 5.1641 14.797s7.9766 7.1914 13.191 8.4531c24.492 6.1016 50.074 11.902 65.188 21 4.5547 2.7656 9.8984 3.9336 15.191 3.3242 5.2891-0.61328 10.227-2.9688 14.031-6.6992l31.094-31.125 51.699 51.75-34.465 43.5c-3.0703 3.8242-4.8945 8.4961-5.2305 13.391-0.33203 4.8945 0.83594 9.7734 3.3594 13.984 11.219 18.676 15.715 30.57 21.355 53.25h-0.003906c1.2578 5.2227 4.2344 9.8711 8.4453 13.203 4.2109 3.332 9.4141 5.1523 14.785 5.1719h47.953v72h-47.953c-5.3203-0.003906-10.488 1.7617-14.691 5.0234-4.2031 3.2578-7.207 7.8203-8.5391 12.977-6.0977 24.516-12.266 50.496-21.355 65.625h0.003907c-2.7188 4.5977-3.8242 9.9688-3.1445 15.266 0.67969 5.3008 3.1016 10.219 6.8906 13.984l31.094 31.125-50.203 49.875-31.094-31.125c-3.8047-3.7344-8.7422-6.0898-14.031-6.6992-5.293-0.61328-10.637 0.55469-15.191 3.3242-15.113 9.0977-40.699 14.898-65.188 21-5.2812 1.2734-9.9727 4.3047-13.305 8.5977-3.3359 4.2891-5.1172 9.5898-5.0508 15.027v48h-71.93v-48c0.066406-5.4375-1.7148-10.738-5.0508-15.027-3.3359-4.293-8.0273-7.3242-13.309-8.5977-24.488-6.1016-50.074-11.902-65.188-21-4.5508-2.7695-9.8945-3.9375-15.188-3.3242-5.293 0.60938-10.23 2.9648-14.031 6.6992l-31.094 31.125-50.203-49.875 31.094-31.125c3.7852-3.7656 6.2109-8.6836 6.8906-13.984 0.67578-5.2969-0.42969-10.668-3.1445-15.266-9.0859-15.129-15.258-41.109-21.355-65.625-1.3281-5.1562-4.332-9.7188-8.5352-12.977-4.207-3.2617-9.375-5.0273-14.691-5.0234h-47.953v-72h47.953c5.3672-0.019531 10.574-1.8398 14.785-5.1719 4.2109-3.332 7.1836-7.9805 8.4414-13.203 5.6406-22.68 10.137-34.574 21.355-53.25 2.5195-4.2109 3.6914-9.0898 3.3555-13.984-0.33203-4.8945-2.1602-9.5664-5.2305-13.391l-34.465-43.5 51.699-51.75 31.094 31.125h0.003907c3.8008 3.7305 8.7383 6.0859 14.031 6.6992 5.293 0.60938 10.637-0.55859 15.188-3.3242 15.113-9.0977 40.695-14.898 65.188-21 5.2188-1.2617 9.8633-4.2383 13.191-8.4531s5.1484-9.4258 5.168-14.797zm35.965 144c-79.168 0-143.86 64.754-143.86 144s64.691 144 143.86 144c79.168 0 143.86-64.754 143.86-144s-64.691-144-143.86-144zm0 48c53.254 0 95.906 42.695 95.906 96s-42.656 96-95.906 96c-53.254 0-95.906-42.695-95.906-96s42.656-96 95.906-96zm441.32 96c-6.625 0.53125-12.727 3.7891-16.859 9l-83.918 108c-3.9688 5.0664-5.7539 11.512-4.9609 17.898 0.79688 6.3906 4.1016 12.199 9.1875 16.145 5.0859 3.9414 11.531 5.6914 17.91 4.8633 6.3789-0.82812 12.164-4.1719 16.074-9.2812l38.586-49.5c-21.609 216.82-185.27 382.88-381.38 382.88h0.003906c-6.418-0.09375-12.605 2.3945-17.176 6.9062s-7.1445 10.668-7.1445 17.094c0 6.4219 2.5742 12.578 7.1445 17.09 4.5703 4.5117 10.758 7 17.176 6.9102 218.56 0 397.35-180.14 427.09-411.75l19.105 38.25c2.4414 6.2969 7.4219 11.27 13.719 13.703 6.293 2.4297 13.32 2.0977 19.359-0.92578 6.0352-3.0195 10.52-8.4453 12.352-14.945 1.832-6.5039 0.84375-13.477-2.7227-19.207l-59.941-120c-2.1641-4.3086-5.5703-7.8633-9.7812-10.203-4.207-2.3438-9.0234-3.3594-13.82-2.9219z"/>
</svg>
