<?xml version="1.0" encoding="UTF-8"?>
<svg width="1200pt" height="1200pt" version="1.1" viewBox="0 0 1200 1200" xmlns="http://www.w3.org/2000/svg">
 <path d="m729.6 134.4c114 0 184.8 142.8 135.6 208.8-57.602 76.801-188.4 69.602-202.8 156 6 3.6016 10.801 8.3984 14.398 14.398 25.199-10.801 76.801-31.199 134.4-31.199 69.602 0 150 28.801 208.8 134.4 70.801 127.2-45.602 230.4-134.4 230.4-20.398 0-38.398-4.8008-52.801-15.602-75.602-56.398-69.602-186-152.4-202.8-3.6016 4.8008-8.3984 9.6016-13.199 14.398 22.801 50.398 97.199 237.6-100.8 346.8-27.602 15.602-54 21.602-78 21.602-114 0-184.8-142.8-135.6-208.8 55.199-76.793 184.8-70.793 201.6-154.79-6-4.8008-12-9.6016-16.801-15.602-24 10.801-76.801 32.398-136.8 32.398-69.602 0-150-28.801-208.8-134.4-70.801-127.2 45.602-230.4 134.4-230.4 20.398 0 38.398 4.8008 52.801 15.602 75.602 56.398 69.602 186 152.4 202.8 4.8008-7.1992 10.801-13.199 18-18-23.992-52.801-93.594-236.4 102.01-344.4 27.598-14.398 54-21.602 78-21.602m0-54c-34.801 0-70.801 9.6016-104.4 28.801-96 52.801-151.2 132-160.8 225.6-13.199-21.602-30-43.199-52.801-61.199-24-18-52.801-27.602-85.199-27.602-70.801 0-145.2 43.199-182.4 108-37.199 62.398-36 134.4 1.1992 202.8 63.602 115.2 151.2 152.4 223.2 160.8-21.602 13.199-42 30-58.801 51.602-33.602 45.602-36 112.8-4.8008 175.2 37.199 74.398 106.8 120 183.6 120 34.801 0 70.801-9.6016 104.4-28.801 93.602-51.602 147.6-127.2 159.6-216 13.199 19.199 28.801 38.398 49.199 54 24 18 52.801 27.602 85.199 27.602 70.801 0 145.2-43.199 182.4-108 37.199-62.398 36-134.4-1.1992-202.8-63.602-115.2-150-152.4-222-159.6 22.801-13.199 45.602-31.199 62.398-54 33.602-45.602 36-112.8 4.8008-175.2-37.199-75.602-106.8-121.2-183.6-121.2z"/>
</svg>
