<?xml version="1.0" encoding="UTF-8"?>
<svg width="1200pt" height="1200pt" version="1.1" viewBox="0 0 1200 1200" xmlns="http://www.w3.org/2000/svg">
 <path d="m6.4688 681.89 694.37-665.67c5.7305-5.4922 15.086-5.5117 20.844-0.054687l464 439.46c2.5703 2.4375 4.1484 5.7188 4.4219 9.2539l7.1367 35.891c2.168 10.91-1.4805 17.234-9.1406 24.578l-686.93 658.54c-2.875 2.7539-6.6484 4.1367-10.414 4.1406h-0.12891c-0.39844 0.019532-0.79297 0.003906-1.1758-0.054687-3.3086-0.27734-6.5547-1.625-9.1094-4.0469l-452.22-428.3c-17.512-16.586-18.703-23.422-21.637-40.242-0.92969-5.332-2.0508-11.762-3.9727-19.715-1.2891-5.3398 0.22656-9.8516 3.9648-13.785zm474.6 452.23c0.1875-0.03125 0.37109-0.054688 0.55859-0.066407 0.54297-0.11328 1.0547-0.36328 1.4609-0.75391l694.37-665.67c0.99219-1.0078 0.99219-2.332-0.019531-3.3281l-464-439.46c-1.1484-1.0859-3.1523-1.0898-4.2969 0.007812l-693.92 665.24c-1.0312 1.1055-1.6172 2.625 0.050781 4.207l463.53 439.01c0.57422 0.54297 1.3633 0.81641 2.168 0.8125 0.035157 0 0.074219 0 0.10938-0.003907zm7.8398 9.7188 5.8281 29.648 685.07-656.75c4.6289-4.4375 6.9922-7.0117 5.6719-13.656l-3.3164-16.684c-1.3047-6.5586-0.24609-6.4531-5.0117-1.8828l-685.76 657.42c-0.76562 0.73437-1.5977 1.3711-2.4766 1.9141zm-7.3477 24.77-4.5273-23.035c-2.3711-0.62109-4.6172-1.8203-6.4922-3.5938l-452.19-428.27c2.4023 13.781 3.5 19.504 18.016 33.254l445.2 421.65zm555.02-714.54c4.5391-4.3672 11.176 2.5352 6.6367 6.8984l-151.35 145.09-9.7031 18.441c-2.9336 5.5742-11.41 1.1094-8.4766-4.4609l10.422-19.805 152.47-146.17zm-20.426-19.359c4.7852-4.6055 11.785 2.6719 7 7.2773l-151.32 145.07-9.6836 18.402c-3.0938 5.8789-12.035 1.1719-8.9375-4.707l10.441-19.84zm-20.426-19.359c5.0352-4.8438 12.398 2.8125 7.3633 7.6562l-151.29 145.04-9.6641 18.363c-3.2539 6.1836-12.656 1.2344-9.4023-4.9492l10.461-19.879zm-20.426-19.359c5.2812-5.082 13.008 2.9492 7.7266 8.0312l-151.26 145.01-9.6445 18.328c-3.418 6.4883-13.281 1.293-9.8672-5.1953l10.48-19.914zm-20.426-19.359c5.5312-5.3203 13.621 3.0898 8.0898 8.4102l-151.23 144.98-9.625 18.289c-3.5781 6.793-13.906 1.3555-10.328-5.4375l10.5-19.953 152.59-146.29zm-20.426-19.359c5.7773-5.5586 14.23 3.2266 8.4531 8.7852l-151.2 144.95-9.6055 18.254c-3.7383 7.0977-14.531 1.4141-10.793-5.6836l10.52-19.988zm-20.426-19.359c6.0273-5.7969 14.844 3.3672 8.8164 9.1641l-151.17 144.92-9.5859 18.215c-3.8984 7.4023-15.152 1.4766-11.254-5.9258l10.539-20.027zm-20.426-19.359c6.2734-6.0352 15.453 3.5039 9.1797 9.543l-151.14 144.89-9.5664 18.18c-4.0586 7.707-15.777 1.5352-11.719-6.1719l10.559-20.062 152.68-146.38zm-20.426-19.359c6.5234-6.2734 16.066 3.6445 9.543 9.918l-151.11 144.86-9.5469 18.141c-4.2188 8.0117-16.402 1.5977-12.184-6.4141l10.578-20.102zm-20.426-19.359c6.7734-6.5156 16.676 3.7812 9.9062 10.297l-151.07 144.83-9.5273 18.105c-4.3789 8.3164-17.027 1.6602-12.645-6.6602l10.598-20.141 152.75-146.43zm-20.426-19.359c7.0195-6.7539 17.289 3.9219 10.266 10.672l-151.04 144.8-9.5078 18.066c-4.5391 8.6211-17.648 1.7188-13.109-6.9023l10.617-20.176zm-20.426-19.359c7.2695-6.9922 17.898 4.0586 10.629 11.051l-151.01 144.77-9.4883 18.031c-4.6992 8.9258-18.273 1.7812-13.574-7.1484l10.637-20.215zm-20.426-19.359c7.5156-7.2305 18.508 4.1992 10.992 11.43l-150.98 144.74-9.4688 17.992c-4.8594 9.2305-18.898 1.8398-14.035-7.3906l10.656-20.25 152.84-146.52zm-20.426-19.359c7.7656-7.4688 19.121 4.3359 11.355 11.805l-150.95 144.71-9.4492 17.953c-5.0195 9.5352-19.523 1.9023-14.5-7.6367l10.676-20.289 152.87-146.55zm-20.426-19.359c8.0117-7.707 19.73 4.4766 11.719 12.184l-150.92 144.68-9.4297 17.918c-5.1836 9.8398-20.145 1.9609-14.965-7.8789l10.695-20.324 152.9-146.58zm-20.426-19.359c8.2617-7.9453 20.344 4.6133 12.082 12.559l-150.89 144.66-9.4102 17.879c-5.3438 10.145-20.77 2.0234-15.426-8.1211l10.715-20.363zm-20.426-19.359c8.5078-8.1836 20.953 4.7539 12.445 12.938l-150.86 144.62-9.3906 17.844c-5.5039 10.449-21.395 2.0859-15.891-8.3672l10.734-20.398 152.96-146.64zm125.93 502.33c4.5391-4.3672 11.176 2.5352 6.6367 6.8984l-151.35 145.09-9.7031 18.441c-2.9336 5.5742-11.41 1.1094-8.4766-4.4609l10.422-19.805 152.47-146.17zm-20.426-19.359c4.7852-4.6055 11.785 2.6719 7 7.2773l-151.32 145.07-9.6836 18.402c-3.0938 5.8789-12.035 1.1719-8.9375-4.707l10.441-19.84zm-20.426-19.359c5.0352-4.8438 12.398 2.8125 7.3633 7.6562l-151.29 145.04-9.6641 18.363c-3.2539 6.1836-12.656 1.2344-9.4023-4.9492l10.461-19.879zm-20.426-19.359c5.2812-5.082 13.008 2.9492 7.7266 8.0312l-151.26 145.01-9.6445 18.328c-3.418 6.4883-13.281 1.293-9.8672-5.1953l10.48-19.914zm-20.426-19.359c5.5312-5.3203 13.621 3.0898 8.0898 8.4102l-151.23 144.98-9.625 18.289c-3.5781 6.793-13.906 1.3555-10.328-5.4375l10.5-19.953zm-20.426-19.359c5.7773-5.5586 14.23 3.2266 8.4531 8.7852l-151.2 144.95-9.6055 18.254c-3.7383 7.0977-14.531 1.4141-10.793-5.6836l10.52-19.988zm-20.426-19.359c6.0273-5.7969 14.844 3.3672 8.8164 9.1641l-151.17 144.92-9.5859 18.215c-3.8984 7.4023-15.152 1.4766-11.254-5.9258l10.539-20.027zm-20.426-19.359c6.2734-6.0352 15.453 3.5039 9.1797 9.543l-151.14 144.89-9.5664 18.18c-4.0586 7.707-15.777 1.5352-11.719-6.1719l10.559-20.062 152.68-146.38zm-20.426-19.359c6.5234-6.2734 16.066 3.6445 9.543 9.918l-151.11 144.86-9.5469 18.141c-4.2188 8.0117-16.402 1.5977-12.184-6.4141l10.578-20.102zm-20.426-19.359c6.7734-6.5156 16.676 3.7812 9.9062 10.297l-151.07 144.83-9.5273 18.105c-4.3789 8.3164-17.027 1.6602-12.645-6.6602l10.598-20.141 152.75-146.43zm-20.426-19.359c7.0195-6.7539 17.289 3.9219 10.266 10.672l-151.04 144.8-9.5078 18.066c-4.5391 8.6211-17.648 1.7188-13.109-6.9023l10.617-20.176zm-20.426-19.359c7.2695-6.9922 17.898 4.0586 10.629 11.051l-151.01 144.77-9.4883 18.031c-4.6992 8.9258-18.273 1.7812-13.574-7.1484l10.637-20.215zm-20.426-19.359c7.5156-7.2305 18.508 4.1992 10.992 11.43l-150.98 144.74-9.4688 17.992c-4.8594 9.2305-18.898 1.8398-14.035-7.3906l10.656-20.25 152.84-146.52zm-20.426-19.359c7.7656-7.4688 19.121 4.3359 11.355 11.805l-150.95 144.71-9.4492 17.953c-5.0195 9.5352-19.523 1.9023-14.5-7.6367l10.676-20.289 152.87-146.55zm-20.426-19.359c8.0117-7.707 19.73 4.4766 11.719 12.184l-150.92 144.68-9.4297 17.918c-5.1836 9.8398-20.145 1.9609-14.965-7.8789l10.695-20.324 152.9-146.58zm-20.426-19.359c8.2617-7.9453 20.344 4.6133 12.082 12.559l-150.89 144.66-9.4102 17.879c-5.3438 10.145-20.77 2.0234-15.426-8.1211l10.715-20.363zm-20.426-19.359c8.5078-8.1836 20.953 4.7539 12.445 12.938l-150.86 144.62-9.3906 17.844c-5.5039 10.449-21.395 2.0859-15.891-8.3672l10.734-20.398zm125.93 502.33c4.5391-4.3672 11.176 2.5352 6.6367 6.8984l-151.35 145.09-9.7031 18.441c-2.9336 5.5742-11.41 1.1094-8.4766-4.4609l10.422-19.805 152.47-146.17zm-20.426-19.359c4.7852-4.6055 11.785 2.6719 7 7.2773l-151.32 145.07-9.6836 18.402c-3.0938 5.8789-12.035 1.1719-8.9375-4.707l10.441-19.84zm-20.426-19.359c5.0352-4.8438 12.398 2.8125 7.3633 7.6562l-151.29 145.04-9.6641 18.363c-3.2539 6.1836-12.656 1.2344-9.4023-4.9492l10.461-19.879zm-20.426-19.359c5.2812-5.082 13.008 2.9492 7.7266 8.0312l-151.26 145.01-9.6445 18.328c-3.418 6.4883-13.281 1.293-9.8672-5.1953l10.48-19.914zm-20.426-19.359c5.5312-5.3203 13.621 3.0898 8.0898 8.4102l-151.23 144.98-9.625 18.289c-3.5781 6.793-13.906 1.3555-10.328-5.4375l10.5-19.953 152.59-146.29zm-20.426-19.359c5.7773-5.5586 14.23 3.2266 8.4531 8.7852l-151.2 144.95-9.6055 18.254c-3.7383 7.0977-14.531 1.4141-10.793-5.6836l10.52-19.988zm-20.426-19.359c6.0273-5.7969 14.844 3.3672 8.8164 9.1641l-151.17 144.92-9.5859 18.215c-3.8984 7.4023-15.152 1.4766-11.254-5.9258l10.539-20.027zm-20.426-19.359c6.2734-6.0352 15.453 3.5039 9.1797 9.543l-151.14 144.89-9.5664 18.18c-4.0586 7.707-15.777 1.5352-11.719-6.1719l10.559-20.066zm-20.426-19.359c6.5234-6.2734 16.066 3.6445 9.543 9.918l-151.11 144.86-9.5469 18.141c-4.2188 8.0117-16.402 1.5977-12.184-6.4141l10.578-20.102zm-20.426-19.359c6.7734-6.5156 16.676 3.7812 9.9062 10.297l-151.07 144.83-9.5273 18.105c-4.3789 8.3164-17.027 1.6602-12.645-6.6602l10.598-20.141 152.75-146.43zm-20.426-19.359c7.0195-6.7539 17.289 3.9219 10.266 10.672l-151.04 144.8-9.5078 18.066c-4.5391 8.6211-17.648 1.7188-13.109-6.9023l10.617-20.176zm-20.426-19.359c7.2695-6.9922 17.898 4.0586 10.629 11.051l-151.01 144.77-9.4883 18.027c-4.6992 8.9258-18.273 1.7812-13.574-7.1484l10.637-20.215 152.8-146.49zm-20.426-19.359c7.5156-7.2305 18.508 4.1992 10.992 11.43l-150.98 144.74-9.4688 17.992c-4.8594 9.2305-18.898 1.8398-14.035-7.3906l10.656-20.25 152.84-146.52zm-20.426-19.359c7.7656-7.4688 19.121 4.3359 11.355 11.805l-150.95 144.71-9.4492 17.953c-5.0195 9.5352-19.523 1.9023-14.5-7.6367l10.676-20.289 152.87-146.55zm-20.426-19.359c8.0117-7.707 19.73 4.4766 11.719 12.184l-150.92 144.68-9.4297 17.918c-5.1836 9.8398-20.145 1.9609-14.965-7.8789l10.695-20.324 152.9-146.58zm-20.426-19.359c8.2617-7.9453 20.344 4.6133 12.082 12.559l-150.89 144.66-9.4102 17.879c-5.3438 10.145-20.77 2.0234-15.426-8.1211l10.715-20.363zm-20.426-19.359c8.5078-8.1836 20.953 4.7539 12.445 12.938l-150.86 144.62-9.3906 17.844c-5.5039 10.449-21.395 2.0859-15.891-8.3672l10.734-20.398 152.96-146.64zm-258.14 149.66 648.12-621.34c4.9883-4.7852 13.145-4.7969 18.16-0.046875l426.02 403.48c5.125 4.8555 5.1484 13.035 0.058594 17.918l-648.12 621.34c-2.5039 2.3984-5.7969 3.6055-9.082 3.6133-3.2695 0.007813-6.5586-1.1797-9.0781-3.5664l-425.52-403.01c-5.3594-5.0781-6.0977-13.078-0.55469-18.387zm654.76-614.44-648.12 621.34c-1.2695 1.2148-1.1406 2.9805 0.09375 4.1484l425.95 403.41c0.66406 0.62891 1.5664 0.94531 2.4805 0.94141 0.89844-0.003906 1.7852-0.32031 2.4453-0.95312l648.12-621.34c1.207-1.1562 1.1914-2.9297-0.019532-4.0781l-426.02-403.48c-1.3242-1.2539-3.6055-1.2539-4.9219 0.011719z"/>
</svg>
