<?xml version="1.0"?>
<svg width="300" height="72" xmlns="http://www.w3.org/2000/svg" xmlns:svg="http://www.w3.org/2000/svg" preserveAspectRatio="xMidYMid meet" version="1.0">
 <metadata>Created by potrace 1.10, written by Peter Selinger 2001-2011</metadata>
 <g class="layer">
  <title>Layer 1</title>
  <g fill="#000000" id="svg_1" transform="matrix(0.1 0 0 -0.1 0 0)">
   <path d="m276,-116c-34,-11 -64,-31 -102,-68c-44,-44 -56,-65 -74,-125c-36,-118 -9,-225 69,-274c48,-29 185,-35 256,-10l50,18l-4,50c-1,28 -4,51 -5,52c-1,1 -24,-4 -51,-12c-62,-19 -108,-19 -145,0c-28,14 -50,42 -50,63c0,5 39,12 88,14c100,6 162,28 197,69c35,43 42,92 19,147c-34,82 -131,112 -248,76zm177,-30c36,-17 57,-58 57,-108c0,-78 -65,-120 -208,-132c-42,-4 -83,-11 -89,-17c-22,-17 -14,-48 21,-83c32,-32 38,-34 101,-34c36,0 75,5 86,10c15,8 19,7 19,-4c0,-8 3,-21 6,-29c8,-22 -58,-41 -146,-41c-119,0 -173,41 -185,139c-12,90 24,203 79,254c62,58 186,80 259,45z" fill="#000000" id="svg_2"/>
   <path d="m289,-200c-44,-23 -79,-83 -62,-108c9,-14 23,-17 74,-14c69,2 104,19 122,59c10,23 8,28 -21,54c-37,33 -63,36 -113,9zm101,-25c31,-37 -7,-68 -97,-80c-46,-6 -53,-5 -53,10c0,9 15,32 34,51c37,37 93,47 116,19z" fill="#000000" id="svg_3"/>
   <path d="m1740,-115c-123,-38 -216,-201 -190,-335c5,-25 9,-48 10,-52c1,-18 59,-73 95,-89c51,-24 149,-25 227,-3l58,17l-6,51c-4,28 -7,52 -8,53c0,0 -28,-6 -61,-15c-92,-24 -163,-2 -179,54c-6,21 -3,22 82,26c143,7 219,56 229,149c12,120 -111,189 -257,144zm174,-31c19,-9 39,-28 45,-41c14,-31 14,-85 -1,-118c-17,-39 -99,-73 -193,-81c-44,-3 -86,-11 -92,-16c-22,-17 -14,-45 21,-83c35,-37 35,-37 108,-33c40,2 80,7 89,11c13,6 16,2 17,-21c0,-26 -5,-31 -39,-42c-62,-21 -168,-18 -215,6c-71,36 -94,125 -65,254c15,67 66,130 131,159c56,25 147,27 194,5z" fill="#000000" id="svg_4"/>
   <path d="m1768,-191c-43,-22 -88,-73 -88,-99c0,-38 46,-45 151,-24c14,2 33,18 42,34c16,26 16,32 3,57c-21,42 -64,55 -108,32zm80,-31c36,-36 -3,-72 -90,-83c-70,-8 -75,5 -24,59c26,28 41,36 68,36c19,0 39,-5 46,-12z" fill="#000000" id="svg_5"/>
   <path d="m2310,-116c-19,-8 -50,-29 -68,-47l-33,-32l7,43l7,42l-66,0l-65,0l-7,-57c-4,-32 -22,-137 -41,-233c-19,-96 -34,-181 -34,-187c0,-9 20,-13 69,-13c81,0 71,-14 101,149c30,163 74,236 136,229c49,-5 52,-38 20,-206c-16,-81 -31,-153 -34,-159c-3,-10 15,-13 71,-13l75,0l27,143c36,188 40,237 25,281c-22,68 -108,95 -190,60zm-120,-49c0,-36 36,-43 68,-13c38,34 76,48 132,48c41,0 52,-4 70,-27c20,-26 22,-36 16,-113c-3,-47 -13,-119 -21,-160c-8,-41 -18,-89 -21,-107c-6,-32 -24,-43 -73,-43c-23,0 -23,2 -18,48c7,52 12,83 27,155c18,85 13,135 -15,162c-29,30 -50,31 -87,7c-58,-38 -89,-103 -113,-237c-22,-125 -26,-131 -69,-133c-19,-1 -37,2 -40,6c-3,6 0,32 18,147c3,17 10,53 15,80c5,28 12,68 16,90c15,100 19,110 50,116c38,7 45,3 45,-26z" fill="#000000" id="svg_6"/>
   <path d="m632,-217c28,-59 54,-112 58,-118c5,-6 -29,-53 -76,-110c-47,-55 -94,-112 -105,-127l-20,-28l83,0l83,0l50,80c50,78 65,94 65,65c0,-8 12,-44 26,-80l26,-65l79,0c76,0 89,5 71,26c-5,5 -30,57 -56,116l-49,108l89,102c49,57 95,111 103,121c13,16 8,17 -70,17l-84,0l-52,-81c-42,-65 -54,-78 -59,-63c-3,11 -16,46 -29,79l-23,60l-80,3l-81,3l51,-108zm103,55c11,-39 44,-106 54,-113c19,-11 47,13 86,74l38,61l48,0c27,0 49,-3 49,-7c0,-5 -36,-48 -80,-98c-44,-49 -80,-98 -80,-109c0,-17 13,-47 71,-170c10,-22 17,-42 14,-44c-2,-3 -24,-6 -49,-8c-43,-4 -44,-3 -65,40c-11,24 -23,55 -27,69c-9,39 -28,51 -53,35c-12,-7 -21,-15 -21,-18c0,-4 -17,-33 -39,-66c-37,-57 -40,-59 -82,-59c-24,0 -46,4 -47,8c-2,5 9,23 25,40c15,18 40,48 55,67c15,19 40,51 57,70c17,19 31,39 31,44c0,4 -10,27 -21,50c-12,22 -25,48 -29,56c-4,8 -12,25 -18,38c-35,68 -37,62 22,62c48,0 55,-3 61,-22z" fill="#000000" id="svg_7"/>
   <path d="m1093,-123c3,-7 22,-118 43,-245l38,-232l76,0l75,0l136,245l137,245l-83,0l-82,0l-67,-147c-37,-81 -70,-160 -73,-177c-6,-28 -5,-30 10,-18c9,8 19,24 23,35c3,12 31,79 62,150l55,127l53,0c30,0 54,-2 54,-4c0,-3 -22,-43 -50,-91c-27,-48 -50,-88 -50,-91c0,-2 -32,-60 -71,-129l-71,-125l-48,1c-27,1 -53,5 -58,8c-5,3 -17,60 -26,126c-10,66 -21,136 -26,155c-15,62 -30,143 -28,146c5,5 87,8 92,4c4,-5 8,-37 21,-160c12,-116 16,-139 30,-150c13,-10 14,-7 11,21c-2,19 -10,98 -17,177l-12,142l-80,0c-61,0 -78,-3 -74,-13z" fill="#000000" id="svg_8"/>
   <path d="m2574,-165l-10,-55l32,0l31,0l-23,-112c-25,-123 -30,-199 -14,-229c17,-31 64,-49 130,-49c67,0 71,3 84,87c5,35 4,41 -9,37c-8,-4 -26,-3 -40,0c-21,5 -25,12 -24,44c0,20 8,78 18,127l17,90l50,3c27,2 52,6 55,10c4,4 10,28 13,55l7,47l-153,0l-154,0l-10,-55zm286,5c0,-23 -28,-40 -68,-40c-16,0 -35,-7 -42,-15c-17,-20 -46,-222 -37,-257c5,-17 17,-30 37,-37c27,-9 30,-13 24,-38c-10,-41 -9,-41 -71,-36c-47,3 -63,9 -81,30c-26,29 -25,47 9,227c19,101 16,126 -17,126c-9,0 -14,11 -14,30l0,30l130,0c123,0 130,-1 130,-20z" fill="#000000" id="svg_9"/>
  </g>
  <path d="m74.75,32.5c0,0 1,-6.25 -1,-8.5c-2,-2.25 -11.25,-10 -11.25,-10c0,0 10,-0.5 10,-0.25c0,0.25 2.5,2.75 2.75,5c0.25,2.25 3.25,7 3.25,7.25c0,0.25 -7.25,9.75 -7.25,9.75" fill="#000000" id="svg_11" stroke="#000000"/>
  <line fill="none" id="svg_12" stroke="#000000" stroke-width="5" transform="matrix(1 0 0 1 0 0)" x1="75.25" x2="75.25" y1="41.25" y2="41"/>
  <path d="m84.25,58l9.75,-0.5l-8.25,-22.5l16.75,-20l-12,-2.5l-10.25,13.75l-8,-11.75l-11.25,-1l9.25,20.75l-17.5,22.5l12,1.75l10.25,-14.75l2,-0.75" fill="#000000" id="svg_13" stroke="#000000"/>
  <path d="m111,13.25l11.5,0.25l3.75,30.75l3,0.25l15.25,-31.5l11.25,0l-24.5,45.75c0,0 -12.5,0.25 -12.5,0c0,-0.25 -7.75,-45.5 -7.75,-45.5z" fill="#000000" id="svg_14" stroke="#000000"/>
  <path d="m259.75,12c0.5,0 27.5,1 27.5,1c0,0 -1.5,7.25 -1.5,7.25c0,0 -10,1.25 -10,1.25c0,0 -3.5,24.5 -3.5,24.5c0,0 0.75,3.25 0.75,3.25c0,0 5.75,1.25 5.75,1.25c0,0 -2,8.5 -2,8.5c0,0 -15.75,-2 -15.75,-2c0,0 -1.75,-12 -1.75,-12c0,0 4.5,-22 4.5,-22c0,0 -1,-2 -1,-2c0,0 -5,-0.25 -5,-0.25c0,0 2,-8.75 2,-8.75z" fill="#000000" id="svg_16" stroke="#000000"/>
  <path d="m203,57.5l9.75,1l8.5,-30.5l5.5,-5.5l4.75,-1.5c0,0 4.5,2.5 4.5,2.25c0,-0.25 0.75,5.25 0.75,5.25c0,0 -0.25,9.75 -0.5,9.75c-0.25,0 -4.25,20 -3.75,19.75c0.5,-0.25 10.25,0.75 10.5,0.5c0.25,-0.25 6.5,-38 6.5,-38c0,0 -3.5,-6.5 -3.5,-6.5c0,0 -6.75,-2.75 -6.75,-2.75c0,0 -7.5,1.5 -7.5,1.5c0,0 -5.5,2.5 -5.5,2.5c0,0 -3.75,3.25 -3.75,3.25" fill="#000000" id="svg_17" stroke="#000000"/>
  <path d="m213.75,56.75l-11.25,-1.75c0,0 7.5,-42 7.75,-42c0.25,0 9.75,0.75 9.75,0.75c0,0 -0.5,4.75 -0.5,4.75c0,0 2.25,1.5 2.25,1.5" fill="#000000" id="svg_19" stroke="#000000"/>
  <path d="m157.5,31.5c0.5,0.25 39,-0.5 39,-0.5c0,0 -4.5,4 -4.5,4c0,0 -8.5,4.5 -8.5,4.25c0,-0.25 -16,2.25 -16,2.25c0,0 1.25,5.5 1.25,5.5c0,0 6.25,3.5 6.25,3.5c0,0 9.25,0.25 9.25,0c0,-0.25 6.5,-1 6.5,-1c0,0 1,6.5 1,6.5c0,0 -11.75,3 -11.75,3c0,0 -10.25,-0.25 -10.25,-0.25c0,0 -8.75,-3.75 -8.75,-3.75c0,0 -5.25,-9.25 -5.25,-9.25c0,0 0,-7.5 0,-7.5c0,0 1.75,-6.75 1.75,-6.75z" fill="#000000" id="svg_23" stroke="#000000"/>
  <path d="m184.75,29.75c0,0 3,-4.75 3,-4.75c0,0 -2,-4 -2,-4c0,0 -3.5,-1.75 -3.5,-1.75c0,0 -6,1.5 -6,1.5c0,0 -5.25,4.5 -5.25,4.5c0,0 -2,3.75 -2,4c0,0.25 1,3.25 1,3.25c0,0 -13.5,0 -13.5,0c0,0 4,-9.25 4,-9.25c0,0 5.25,-5.75 5.25,-5.75c0,0 7.75,-4 7.75,-4c0,0 7,-1.25 7,-1.25c0,0 7.25,0.25 7.5,0.25c0.25,0 5.5,2 5.5,2c0,0 3.75,4 3.75,4c0,0 0.75,7.5 0.75,7.5c0,0 -2.25,7 -2.25,6.75c0,-0.25 -8.25,1 -8.5,1c-0.25,0 -2.5,-4 -2.5,-4z" fill="#000000" id="svg_24" stroke="#000000"/>
  <path d="m11,31.5c0.25,0.25 40,-1.5 40,-1.5c0,0 -4.75,6.25 -4.75,6.25c0,0 -8.25,2.25 -8.25,2.25c0,0 -9,1 -9,1c0,0 -8,1.25 -8,1.25c0,0 1.5,6 1.5,6c0,0 6.25,3.25 6.25,3.25c0,0 8,0 8,0c0,0 7.75,0 7.75,-0.25c0,-0.25 1.5,7 1.5,7c0,0 -10.75,2.5 -10.75,2.5c0,0 -9.25,0 -9.5,0c-0.25,0 -10,-2.75 -10,-2.75c0,0 -5.25,-7.75 -5.25,-7.75c0,0 -1.5,-10.5 -1.5,-10.5c0,0 2,-6.75 2,-6.75z" fill="#000000" id="svg_25" stroke="#000000"/>
  <path d="m38.25,29.25l3,-5l-2.75,-4l-4.5,-1.25l-6,3l-4,5c0,0 -0.5,4.5 -0.5,4.75c0,0.25 -12.75,1 -12.75,1c0,0 2.5,-8 2.5,-8c0,0 4.75,-6 4.75,-6c0,0 6.75,-4 6.75,-4c0,0 4.75,-2.75 5.5,-2.25c0.75,0.5 8.25,-1.25 8.25,-1.25c0,0 7.75,2.75 7.75,2.75c0,0 5.25,5 5.25,5c0,0 0.25,7 0.25,7c0,0 -3.25,5.75 -3.25,5.75c0,0 -10.5,-0.25 -10.5,-0.25c0,0 0.25,-2.25 0.25,-2.25z" fill="#000000" id="svg_26" stroke="#000000"/>
 </g>
</svg>