<?xml version="1.0" encoding="UTF-8"?>
<svg width="1200pt" height="1200pt" version="1.1" viewBox="0 0 1200 1200" xmlns="http://www.w3.org/2000/svg">
 <path d="m600 0c-159.13 0-311.74 63.215-424.27 175.73-112.52 112.52-175.73 265.14-175.73 424.27s63.215 311.74 175.73 424.27c112.52 112.52 265.14 175.73 424.27 175.73s311.74-63.215 424.27-175.73c112.52-112.52 175.73-265.14 175.73-424.27 0-105.32-27.723-208.79-80.383-300-52.664-91.211-128.41-166.95-219.62-219.62-91.211-52.66-194.68-80.383-300-80.383zm0 61.125c137.55 0.16406 269.83 52.922 369.74 147.46 99.91 94.543 159.88 223.71 167.64 361.04h-271.5l-139.88 279.75-244.12-651-185.62 371.25h-233.62c7.7539-137.33 67.727-266.5 167.64-361.04 99.91-94.539 232.19-147.3 369.74-147.46zm0 1077.8c-137.55-0.16406-269.83-52.922-369.74-147.46-99.91-94.543-159.88-223.71-167.64-361.04h271.5l139.88-279.75 244.12 651 187.5-371.25h233.62c-7.7695 137.65-68.008 267.09-168.32 361.68-100.31 94.59-233.06 147.13-370.93 146.82z"/>
</svg>
